<?xml version="1.0" standalone="no"?><!DOCTYPE svg PUBLIC "-//W3C//DTD SVG 1.1//EN" "http://www.w3.org/Graphics/SVG/1.1/DTD/svg11.dtd"><svg t="1617352398009" class="icon" viewBox="0 0 1024 1024" version="1.1" xmlns="http://www.w3.org/2000/svg" p-id="1117" xmlns:xlink="http://www.w3.org/1999/xlink" width="200" height="200"><defs><style type="text/css"></style></defs><path d="M555.847659 397.186264h99.842664v124.243913h-99.842664z" p-id="1118"></path><path d="M800.765869 149.17794H231.065973a50.45411 50.45411 0 0 0-50.45411 50.45411v619.195005a50.45411 50.45411 0 0 0 50.45411 50.45411H800.765869a50.45411 50.45411 0 0 0 50.45411-50.45411V199.63205A50.45411 50.45411 0 0 0 800.765869 149.17794zM527.02435 241.881374c22.16358 26.638918 42.142768 51.786056 59.884287 75.441415l-51.040167 26.638918c-16.303018-25.147138-34.790427-50.240999-55.462227-75.441416l46.618107-26.638917z m-208.582727 523.56129c-13.319459 1.438502-31.060978 2.237669-53.224557 2.237669l-11.08179-55.462227h39.958376c17.741519 1.438502 25.83975-6.659729 24.401249-24.401249v-124.243912l-66.544017 19.979188-4.42206-64.359625c5.91384-1.438502 16.24974-3.676171 31.060978-6.65973 17.741519-4.42206 31.060978-7.405619 39.958377-8.897398V392.764204H256.372945v-53.224558h62.121956V246.356712h55.462227v93.182934h51.040166v53.224558h-51.040166v95.367326c17.741519-4.42206 35.483039-8.897399 53.224558-13.319459v57.699896l-53.224558 15.50385v157.489282c1.438502 39.958377-17.048907 59.937565-55.515505 59.937565z m465.914673-190.787929H713.390219v195.209989h-57.699896v-195.209989h-102.027056c-1.491779 78.424974-34.044537 145.661602-97.604994 201.869719-5.91384-5.91384-16.303018-15.50385-31.060979-28.823309-7.405619-5.91384-12.573569-10.389178-15.50385-13.319459 54.716337-42.888658 83.539646-96.113215 86.523205-159.726951H431.603746v-53.224558H498.147763V397.186264h-48.802498v-51.040166h179.70614c25.147138-41.396878 45.073049-76.134027 59.884287-104.264724l55.462227 22.163579c-7.405619 8.897399-17.741519 23.655359-31.060978 44.380437a2488.288033 2488.288033 0 0 1-24.401249 37.720708h82.101145v51.040166h-57.699896v124.243913h70.966077v53.224558z" p-id="1119"></path></svg>