<?xml version="1.0" standalone="no"?><!DOCTYPE svg PUBLIC "-//W3C//DTD SVG 1.1//EN" "http://www.w3.org/Graphics/SVG/1.1/DTD/svg11.dtd"><svg t="1618032042031" class="icon" viewBox="0 0 1024 1024" version="1.1" xmlns="http://www.w3.org/2000/svg" p-id="2273" xmlns:xlink="http://www.w3.org/1999/xlink" width="200" height="200"><defs><style type="text/css"></style></defs><path d="M288 595.2v243.2c0 44.8-12.8 70.4-32 83.2-38.4 12.8-83.2 19.2-121.6 19.2-6.4-32-12.8-57.6-25.6-83.2H192c12.8 0 12.8-6.4 12.8-12.8V620.8l-96 32-25.6-83.2c32-6.4 70.4-19.2 121.6-32V352H96V268.8h108.8V89.6h83.2v179.2h83.2v83.2H288V512l76.8-19.2 12.8 76.8-89.6 25.6z m652.8 19.2h-121.6v326.4h-89.6V614.4H608c-6.4 134.4-70.4 256-179.2 339.2-19.2-25.6-38.4-44.8-57.6-64 89.6-57.6 147.2-160 153.6-275.2H390.4V531.2h134.4V358.4H422.4V281.6h128c-19.2-57.6-44.8-108.8-76.8-160l76.8-32c32 51.2 64 102.4 83.2 153.6l-76.8 38.4h166.4c32-64 57.6-128 76.8-192l96 25.6c-25.6 57.6-51.2 108.8-83.2 160h108.8v83.2h-102.4v166.4h121.6v89.6z m-211.2-83.2V358.4H608v166.4h121.6z" p-id="2274" fill="#50575e"></path></svg>